<svg width="26" height="25" viewBox="0 0 26 25" fill="none" xmlns="http://www.w3.org/2000/svg">
<path d="M14.4151 14.4191L14.4536 14.4298L14.4889 14.411C15.4766 13.8848 16.1512 12.8441 16.1512 11.6483C16.1512 9.92277 14.7476 8.51914 13.0221 8.51914C11.2968 8.51914 9.89316 9.92277 9.89316 11.6483C9.89316 12.8376 10.5603 13.874 11.5397 14.403L11.5748 14.422L11.6134 14.4115C12.061 14.2898 12.5261 14.2259 12.9994 14.2259C13.4829 14.2259 13.9586 14.2924 14.4151 14.4191ZM10.6445 11.6483C10.6445 10.3374 11.7112 9.2707 13.0221 9.2707C14.333 9.2707 15.3997 10.3374 15.3997 11.6483C15.3997 12.9592 14.333 14.0259 13.0221 14.0259C11.7112 14.0259 10.6445 12.9592 10.6445 11.6483Z" fill="white" stroke="white" stroke-width="0.2"/>
<path d="M14.4688 14.2255L14.4687 14.2255C13.995 14.094 13.5014 14.025 12.9995 14.025C12.5082 14.025 12.0254 14.0913 11.561 14.2176C10.7206 14.446 9.94124 14.8731 9.28871 15.4752L9.28869 15.4752C8.91236 15.8226 8.59034 16.2165 8.32851 16.6447L8.28921 16.709L8.34012 16.7645C8.47184 16.9081 8.61024 17.046 8.75505 17.177L8.8467 17.2599L8.90868 17.153C9.73205 15.7321 11.2739 14.7763 12.9995 14.7763C14.7248 14.7763 16.2669 15.7321 17.0903 17.153L17.1523 17.2599L17.2439 17.177C17.3888 17.0459 17.5269 16.9081 17.6588 16.7645L17.7098 16.709L17.6705 16.6447C17.4087 16.2165 17.0866 15.8226 16.71 15.4752C16.0655 14.8803 15.2972 14.4561 14.4688 14.2255Z" fill="white" stroke="white" stroke-width="0.2"/>
<mask id="mask0_1051_810" style="mask-type:luminance" maskUnits="userSpaceOnUse" x="0" y="0" width="26" height="25">
<path d="M1 0.392187H0.9V0.492188V24.4922V24.5922H1H25H25.1V24.4922V0.492188V0.392187H25H1Z" fill="white" stroke="white" stroke-width="0.2"/>
</mask>
<g mask="url(#mask0_1051_810)">
<path d="M1.65107 13.8711H4.85003C5.02714 13.8711 5.1801 13.9947 5.21734 14.1681L5.21735 14.1681C5.41869 15.108 5.78716 15.9962 6.31239 16.8082C6.40852 16.9568 6.38799 17.1527 6.26267 17.278L6.19196 17.2073L6.26267 17.278L3.99953 19.5409L5.95004 21.4914L8.21318 19.2285L8.21328 19.2284C8.33865 19.1034 8.53414 19.0823 8.68299 19.1785L8.68301 19.1785C9.495 19.704 10.3832 20.0722 11.3231 20.2738L11.3232 20.2739C11.4962 20.3111 11.6201 20.4639 11.6201 20.6411V23.8401H14.3784V20.6411C14.3784 20.4639 14.5023 20.3111 14.6754 20.2739L14.6754 20.2738C15.6156 20.0722 16.5038 19.704 17.3158 19.1785L17.3159 19.1784C17.4645 19.0827 17.66 19.1032 17.7853 19.2285L20.0482 21.4914L21.9987 19.5409L19.7359 17.2778L1.65107 13.8711ZM1.65107 13.8711V11.1125H4.85003C5.02709 11.1125 5.18007 10.989 5.21733 10.8158L5.21735 10.8157C5.41869 9.87561 5.78716 8.98768 6.31239 8.17539C6.40853 8.02675 6.38798 7.83116 6.26267 7.70585L3.99953 5.44271L5.95004 3.4922L8.21318 5.75509L8.21328 5.75519C8.33865 5.88021 8.53414 5.90133 8.68299 5.80506L8.68301 5.80505C9.495 5.27958 10.3832 4.91137 11.3231 4.71002L11.3232 4.71C11.4962 4.67276 11.6201 4.51959 11.6201 4.34271V1.14349H14.3784V4.34271C14.3784 4.51959 14.5023 4.67276 14.6754 4.71L14.6754 4.71002C15.6153 4.91137 16.5035 5.27958 17.3158 5.80506L17.3701 5.72109L17.3158 5.80506C17.4644 5.90119 17.66 5.88068 17.7853 5.75509L1.65107 13.8711ZM6.14508 22.218L6.2158 22.2887C6.06919 22.4353 5.83113 22.4353 5.68453 22.2887L3.2025 19.8067C3.13218 19.7363 3.09248 19.6406 3.09248 19.5409C3.09248 19.4414 3.13221 19.3457 3.2025 19.2754L5.52027 16.9576C5.08312 16.2274 4.75823 15.4443 4.55165 14.6227H1.27529C1.06766 14.6227 0.899512 14.4541 0.899512 14.2469V10.737C0.899512 10.5294 1.06772 10.3612 1.27529 10.3612H4.55165C4.75823 9.53954 5.08311 8.75619 5.52026 8.02623L3.2025 5.70847L3.20241 5.70839C3.05592 5.56154 3.05592 5.32388 3.20241 5.17703L3.2025 5.17694L5.68444 2.69526L6.14508 22.218ZM6.14508 22.218L6.2158 22.2887L8.53355 19.9707C9.26372 20.4081 10.0466 20.733 10.8685 20.9395V24.2159C10.8685 24.4231 11.0367 24.5917 11.2443 24.5917H14.7542C14.9615 24.5917 15.13 24.4232 15.13 24.2159V20.9395C15.9519 20.733 16.735 20.4081 17.465 19.9707L19.7827 22.2887L19.7829 22.2889C19.8533 22.3589 19.9486 22.3987 20.0482 22.3987C20.1479 22.3987 20.2436 22.359 20.314 22.2887L22.796 19.8067C22.9426 19.66 22.9426 19.422 22.796 19.2754L20.4783 16.9576C20.9156 16.2274 21.2403 15.4443 21.4469 14.6227H24.7232C24.9308 14.6227 25.099 14.4541 25.099 14.2469V10.737C25.099 10.5294 24.9308 10.3612 24.7232 10.3612H21.4469C21.2403 9.53956 20.9156 8.75621 20.4783 8.02622L22.796 5.70847L22.7961 5.70839C22.9426 5.56154 22.9426 5.32388 22.7961 5.17703L22.796 5.17694L20.3142 2.69535C20.3141 2.69532 20.3141 2.69528 20.314 2.69525L20.314 2.69517L20.2433 2.76589C20.1917 2.71406 20.1214 2.6849 20.0482 2.6849C19.9753 2.6849 19.9052 2.71406 19.8534 2.76589L6.14508 22.218ZM10.8685 4.0443V0.767969C10.8685 0.560397 11.0367 0.392187 11.2443 0.392187H14.7542C14.9615 0.392187 15.13 0.560335 15.13 0.767969V4.0443C15.9516 4.25066 16.7348 4.57554 17.465 5.01293L10.8685 4.0443ZM10.8685 4.0443C10.0468 4.25067 9.26372 4.57579 8.53356 5.01294L6.21588 2.69526L10.8685 4.0443ZM17.7854 5.75499L20.0482 3.4922L21.9987 5.44271L19.7358 7.70586C19.6105 7.83116 19.59 8.02667 19.6858 8.17526L19.6859 8.17541C20.2113 8.98769 20.5798 9.87561 20.7812 10.8157L20.7812 10.8158C20.8184 10.989 20.9717 11.1125 21.1485 11.1125H24.3474V13.8711H21.1485C20.9717 13.8711 20.8184 13.9946 20.7812 14.1681L20.7812 14.1681C20.5798 15.108 20.2113 15.9962 19.6859 16.8082L19.6858 16.8083C19.5901 16.9568 19.6104 17.1526 19.7358 17.2777L17.7854 5.75499ZM6.2158 2.69517C6.06919 2.54831 5.83114 2.54831 5.68453 2.69517L6.2158 2.69517Z" fill="white" stroke="white" stroke-width="0.2"/>
</g>
<path d="M17.1097 17.0287L17.1096 17.0288C16.0221 18.0152 14.5796 18.6167 12.9995 18.6167C11.4194 18.6167 9.9769 18.0152 8.88931 17.0288L8.88923 17.0287C8.74915 16.902 8.61515 16.7685 8.4875 16.6293L8.48748 16.6293C7.48622 15.5381 6.87422 14.0851 6.87422 12.4914C6.87422 9.11408 9.62216 6.36615 12.9995 6.36615C16.3768 6.36615 19.1247 9.11408 19.1247 12.4914C19.1247 14.0851 18.5127 15.5381 17.5115 16.6293C17.3835 16.7685 17.2497 16.902 17.1097 17.0287ZM12.9995 19.368C16.7914 19.368 19.876 16.2834 19.876 12.4914C19.876 8.69946 16.7914 5.61484 12.9995 5.61484C9.20754 5.61484 6.12266 8.69945 6.12266 12.4914C6.12266 16.2834 9.20754 19.368 12.9995 19.368Z" fill="white" stroke="white" stroke-width="0.2"/>
</svg>
