<svg width="24" height="20" viewBox="0 0 24 20" fill="none" xmlns="http://www.w3.org/2000/svg">
<mask id="mask0_1051_754" style="mask-type:luminance" maskUnits="userSpaceOnUse" x="0" y="19" width="24" height="1">
<path d="M0 19.0215H24V19.8217H0V19.0215Z" fill="white"/>
</mask>
<g mask="url(#mask0_1051_754)">
<path fill-rule="evenodd" clip-rule="evenodd" d="M23.6486 19.7884H0.351587C0.154762 19.7884 0 19.6261 0 19.4196C0 19.2131 0.154762 19.0508 0.351587 19.0508H23.6486C23.8454 19.0508 24 19.2131 24 19.4196C24 19.6261 23.8454 19.7884 23.6486 19.7884Z" fill="white"/>
</g>
<path fill-rule="evenodd" clip-rule="evenodd" d="M5.20221 19.7876C5.00539 19.7876 4.85062 19.6252 4.85062 19.4187V15.4351H2.76987V19.4481C2.76987 19.64 2.61511 19.8172 2.41828 19.8172C2.22146 19.8172 2.06689 19.64 2.06689 19.4481V15.0661C2.06689 14.8596 2.22146 14.6973 2.41828 14.6973H5.20221C5.39904 14.6973 5.5536 14.8596 5.5536 15.0661V19.4187C5.53971 19.6252 5.38495 19.7876 5.20221 19.7876Z" fill="white"/>
<path fill-rule="evenodd" clip-rule="evenodd" d="M10.6573 19.788C10.4605 19.788 10.3057 19.6257 10.3057 19.4192V10.9944H8.22495V19.4192C8.22495 19.6257 8.07039 19.788 7.87336 19.788C7.67654 19.788 7.52197 19.6257 7.52197 19.4192V10.6403C7.52197 10.4484 7.67654 10.2715 7.87336 10.2715H10.6573C10.8541 10.2715 11.0087 10.4484 11.0087 10.6403V19.4485C11.0087 19.6257 10.8541 19.788 10.6573 19.788Z" fill="white"/>
<path fill-rule="evenodd" clip-rule="evenodd" d="M16.1265 19.7877C15.9296 19.7877 15.7749 19.6253 15.7749 19.4188V12.4252H13.68V19.4188C13.68 19.6253 13.5255 19.7877 13.3286 19.7877C13.1318 19.7877 12.9771 19.6253 12.9771 19.4188V12.0563C12.9771 11.8498 13.1318 11.6875 13.3286 11.6875H16.1265C16.3092 11.6875 16.4778 11.8498 16.4778 12.0563V19.4188C16.4778 19.6253 16.3092 19.7877 16.1265 19.7877Z" fill="white"/>
<path fill-rule="evenodd" clip-rule="evenodd" d="M21.5819 19.787C21.3851 19.787 21.2306 19.6247 21.2306 19.4182V7.71805H19.1214V19.4476C19.1214 19.6395 18.9669 19.8166 18.77 19.8166C18.5732 19.8166 18.4185 19.6395 18.4185 19.4476V7.3786C18.4185 7.17209 18.5732 7.00977 18.77 7.00977H21.5538C21.7506 7.00977 21.9054 7.17209 21.9054 7.3786V19.4476C21.9335 19.6247 21.7788 19.787 21.5819 19.787Z" fill="white"/>
<path fill-rule="evenodd" clip-rule="evenodd" d="M4.68189 9.50239C4.58348 9.50239 4.48507 9.45822 4.40074 9.35486C4.28824 9.19253 4.3303 8.97123 4.45689 8.8385L8.18269 5.81386C8.33745 5.6957 8.56245 5.74009 8.67495 5.87283C8.78725 6.04995 8.74519 6.27125 8.6186 6.38919L4.8928 9.41383C4.83646 9.47281 4.75213 9.50239 4.68189 9.50239ZM13.6801 6.92036C13.666 6.92036 13.624 6.92036 13.6099 6.90556L10.2777 6.04995C10.095 6.00557 9.98249 5.79906 10.0246 5.60714C10.0527 5.43023 10.2496 5.31208 10.4323 5.34167L13.7644 6.21207C13.9333 6.24166 14.0597 6.44817 14.0176 6.64008C13.9613 6.80241 13.8208 6.92036 13.6801 6.92036ZM15.5781 6.44817C15.4797 6.44817 15.3813 6.40399 15.297 6.33022C15.1845 6.18269 15.1986 5.94659 15.3392 5.81386L19.1212 2.5825C19.2619 2.46456 19.4869 2.47936 19.6134 2.62689C19.7257 2.77442 19.7119 3.01052 19.5712 3.14326L15.789 6.3744C15.7329 6.43358 15.6486 6.44817 15.5781 6.44817Z" fill="white"/>
<path fill-rule="evenodd" clip-rule="evenodd" d="M3.79619 11.348C3.00869 11.348 2.36206 10.6693 2.36206 9.82831C2.36206 8.98729 3.00869 8.30859 3.79619 8.30859C4.59758 8.30859 5.2442 8.98729 5.2442 9.82831C5.2442 10.6693 4.59758 11.348 3.79619 11.348ZM3.79619 9.04626C3.38845 9.04626 3.03686 9.4003 3.03686 9.8429C3.03686 10.2709 3.37436 10.6397 3.79619 10.6397C4.2319 10.6397 4.55531 10.3003 4.55531 9.8429C4.58349 9.4003 4.2319 9.04626 3.79619 9.04626Z" fill="white"/>
<path fill-rule="evenodd" clip-rule="evenodd" d="M9.27976 6.92112C8.47817 6.92112 7.83154 6.24243 7.83154 5.4162C7.83154 4.57518 8.47817 3.89648 9.27976 3.89648C10.0811 3.89648 10.7278 4.57518 10.7278 5.4162C10.7278 6.24243 10.0811 6.92112 9.27976 6.92112ZM9.27976 4.60477C8.84384 4.60477 8.52043 4.95881 8.52043 5.4162C8.52043 5.8588 8.87202 6.21284 9.27976 6.21284C9.6875 6.21284 10.0389 5.8588 10.0389 5.4162C10.0389 4.95881 9.6875 4.60477 9.27976 4.60477Z" fill="white"/>
<path fill-rule="evenodd" clip-rule="evenodd" d="M14.7344 8.35276C13.933 8.35276 13.3003 7.67407 13.3003 6.84784C13.3003 6.00682 13.933 5.32812 14.7344 5.32812C15.5358 5.32812 16.1824 6.00682 16.1824 6.84784C16.1824 7.67407 15.5358 8.35276 14.7344 8.35276ZM14.7344 6.0512C14.3267 6.0512 13.9751 6.39045 13.9751 6.84784C13.9751 7.27565 14.3126 7.64469 14.7344 7.64469C15.1701 7.64469 15.4935 7.29044 15.4935 6.84784C15.4935 6.40524 15.1701 6.0512 14.7344 6.0512Z" fill="white"/>
<path fill-rule="evenodd" clip-rule="evenodd" d="M20.1897 3.64573C19.3884 3.64573 18.7556 2.98183 18.7556 2.14081C18.7556 1.29979 19.3884 0.621094 20.1897 0.621094C20.9911 0.621094 21.638 1.29979 21.638 2.14081C21.6518 2.98183 20.9911 3.64573 20.1897 3.64573ZM20.1897 1.34417C19.782 1.34417 19.4304 1.68342 19.4304 2.14081C19.4304 2.58341 19.7679 2.93766 20.1897 2.93766C20.6257 2.93766 20.9489 2.56882 20.9489 2.14081C20.977 1.71301 20.6257 1.34417 20.1897 1.34417Z" fill="white"/>
</svg>
