<svg width="26" height="25" viewBox="0 0 26 25" fill="none" xmlns="http://www.w3.org/2000/svg">
<mask id="path-1-outside-1_1051_739" maskUnits="userSpaceOnUse" x="0" y="-0.779297" width="26" height="26" fill="black">
<rect fill="white" y="-0.779297" width="26" height="26"/>
<path d="M15.4245 3.40039C15.793 3.50169 16.1518 3.62487 16.499 3.76888C16.8521 3.91523 17.1932 4.08268 17.5211 4.26966L19.7529 2.42357L19.9617 2.67617L19.7526 2.42331C19.8859 2.31315 20.0799 2.32591 20.1979 2.44805L22.7766 5.02695V5.02669C22.901 5.15143 22.9047 5.35117 22.7872 5.47982L20.9516 7.69909C21.1383 8.02669 21.3057 8.36784 21.4518 8.7207C21.5958 9.06836 21.7195 9.42747 21.8206 9.79622L24.7026 10.0689L24.6719 10.3944L24.7026 10.0678C24.8727 10.0837 25 10.227 25 10.3944V14.047C25 14.227 24.8549 14.373 24.6755 14.3751L21.8201 14.6452C21.719 15.0137 21.5958 15.3725 21.4518 15.7197C21.3055 16.0728 21.138 16.4139 20.951 16.7418L22.7971 18.9736L22.5445 19.1824L22.7974 18.9733C22.9076 19.1064 22.8948 19.3007 22.7727 19.4186L20.1938 21.9973H20.194C20.0693 22.1217 19.8695 22.1254 19.7409 22.0079L17.5216 20.1723C17.194 20.359 16.8529 20.5264 16.5 20.6725C16.1523 20.8165 15.7932 20.9402 15.4245 21.0413L15.1518 23.9233L14.8263 23.8926L15.1529 23.9233C15.137 24.0934 14.9938 24.2207 14.8263 24.2207H11.1737C10.9938 24.2207 10.8477 24.0757 10.8456 23.8962L10.5755 21.0408C10.207 20.9397 9.84818 20.8165 9.50104 20.6725C9.14792 20.5259 8.80677 20.3587 8.47891 20.1717L6.24714 22.0178L6.03828 21.7652L6.2474 22.0181C6.11432 22.1283 5.92005 22.1155 5.80208 21.9934L3.22344 19.4145C3.09896 19.29 3.09531 19.0902 3.21276 18.9616L5.04844 16.7423C4.86172 16.4147 4.69427 16.0736 4.54818 15.7204C4.40417 15.373 4.28047 15.0139 4.17943 14.6452L1.2974 14.3725L1.32813 14.047L1.2974 14.3736C1.12734 14.3577 1 14.2145 1 14.047V10.3944C1 10.2145 1.14505 10.0684 1.32448 10.0663L4.17969 9.79622C4.28073 9.42747 4.40417 9.06862 4.54818 8.72122C4.69453 8.3681 4.86198 8.02695 5.0487 7.69935L3.20286 5.46784L3.45547 5.25872L3.2026 5.4681C3.09245 5.33477 3.10521 5.14076 3.22734 5.02279L5.80625 2.44414C5.93073 2.31966 6.13047 2.31602 6.25911 2.43346L8.47891 4.2694C8.80677 4.08268 9.14766 3.91523 9.50078 3.76914C9.84818 3.62513 10.2068 3.50169 10.5755 3.40065L10.8482 0.518099L11.1737 0.548828L10.8471 0.518099C10.863 0.348047 11.0063 0.220703 11.1737 0.220703H14.8263C15.0063 0.220703 15.1523 0.365495 15.1544 0.544922L15.4245 3.40039ZM16.2479 4.37383C15.8659 4.2155 15.4706 4.08424 15.0646 3.98294C14.9221 3.9582 14.8081 3.84102 14.794 3.6905L15.1206 3.65951L14.7951 3.69023L14.5289 0.876953H11.4711L11.2076 3.66237C11.2065 3.80872 11.1068 3.94154 10.9581 3.97799L10.8794 3.65951L10.9576 3.97747C10.5438 4.07956 10.1409 4.21263 9.75182 4.37409C9.3638 4.53503 8.98906 4.72461 8.63047 4.94023C8.51276 5.01966 8.3526 5.01602 8.2375 4.92122L8.44661 4.66836L8.23776 4.9207L6.05938 3.11888L3.89818 5.28008L5.68958 7.4457C5.78542 7.55039 5.80547 7.70951 5.72839 7.83711L5.72786 7.83685C5.50885 8.19961 5.31615 8.57904 5.15313 8.97253C4.99479 9.35456 4.86354 9.75013 4.76198 10.1561C4.7375 10.2986 4.62031 10.4126 4.46953 10.4267L4.4388 10.1001L4.46953 10.4257L1.65625 10.6918V13.7496L4.44115 14.0129C4.5875 14.0142 4.72031 14.1139 4.75703 14.2624L4.43828 14.3413L4.75625 14.2629C4.85859 14.6772 4.99167 15.0801 5.15313 15.4694C5.31406 15.8574 5.50365 16.2322 5.71927 16.5908C5.7987 16.7082 5.79505 16.8686 5.70026 16.9835L5.4474 16.7743L5.69974 16.9832L3.89818 19.1613L6.05938 21.3225L8.22448 19.5314C8.32917 19.4353 8.48854 19.415 8.61641 19.4923L8.61615 19.4926C8.97917 19.7116 9.35885 19.9043 9.75208 20.0676C10.1341 20.2259 10.5294 20.3572 10.9354 20.4585C11.0779 20.4829 11.1919 20.6004 11.2063 20.7509L10.8794 20.7819L11.2049 20.7512L11.4711 23.5645H14.5289L14.7922 20.7796C14.7935 20.6332 14.8932 20.5004 15.0419 20.4637L15.1206 20.7824L15.0422 20.4645C15.4565 20.3621 15.8594 20.229 16.2487 20.0676C16.6367 19.9066 17.0115 19.7171 17.3701 19.5014C17.4875 19.422 17.6479 19.4257 17.7628 19.5204L17.5536 19.7733L17.7625 19.521L19.9406 21.3225L22.1018 19.1613L20.3107 16.9962C20.2146 16.8915 20.1943 16.7322 20.2716 16.6043L20.2719 16.6046C20.4909 16.2415 20.6836 15.8618 20.8469 15.4686C21.0052 15.0866 21.1365 14.6913 21.2378 14.2853C21.2625 14.1428 21.3797 14.0288 21.5302 14.0145L21.5612 14.3413L21.5305 14.0158L24.3438 13.7496V10.6918L21.5589 10.4285C21.4125 10.4272 21.2797 10.3275 21.243 10.1788L21.5617 10.1001L21.2438 10.1783C21.1414 9.76419 21.0083 9.36133 20.8469 8.97201C20.6859 8.58398 20.4964 8.20925 20.2807 7.85065C20.2013 7.7332 20.2049 7.57279 20.2997 7.45794L20.5526 7.66706L20.3003 7.4582L22.1018 5.28008L19.9406 3.11888L17.7755 4.91003C17.6708 5.00612 17.5115 5.02643 17.3836 4.94909L17.3839 4.94883C17.0208 4.72956 16.6411 4.53711 16.2479 4.37383Z"/>
</mask>
<path d="M15.4245 3.40039C15.793 3.50169 16.1518 3.62487 16.499 3.76888C16.8521 3.91523 17.1932 4.08268 17.5211 4.26966L19.7529 2.42357L19.9617 2.67617L19.7526 2.42331C19.8859 2.31315 20.0799 2.32591 20.1979 2.44805L22.7766 5.02695V5.02669C22.901 5.15143 22.9047 5.35117 22.7872 5.47982L20.9516 7.69909C21.1383 8.02669 21.3057 8.36784 21.4518 8.7207C21.5958 9.06836 21.7195 9.42747 21.8206 9.79622L24.7026 10.0689L24.6719 10.3944L24.7026 10.0678C24.8727 10.0837 25 10.227 25 10.3944V14.047C25 14.227 24.8549 14.373 24.6755 14.3751L21.8201 14.6452C21.719 15.0137 21.5958 15.3725 21.4518 15.7197C21.3055 16.0728 21.138 16.4139 20.951 16.7418L22.7971 18.9736L22.5445 19.1824L22.7974 18.9733C22.9076 19.1064 22.8948 19.3007 22.7727 19.4186L20.1938 21.9973H20.194C20.0693 22.1217 19.8695 22.1254 19.7409 22.0079L17.5216 20.1723C17.194 20.359 16.8529 20.5264 16.5 20.6725C16.1523 20.8165 15.7932 20.9402 15.4245 21.0413L15.1518 23.9233L14.8263 23.8926L15.1529 23.9233C15.137 24.0934 14.9938 24.2207 14.8263 24.2207H11.1737C10.9938 24.2207 10.8477 24.0757 10.8456 23.8962L10.5755 21.0408C10.207 20.9397 9.84818 20.8165 9.50104 20.6725C9.14792 20.5259 8.80677 20.3587 8.47891 20.1717L6.24714 22.0178L6.03828 21.7652L6.2474 22.0181C6.11432 22.1283 5.92005 22.1155 5.80208 21.9934L3.22344 19.4145C3.09896 19.29 3.09531 19.0902 3.21276 18.9616L5.04844 16.7423C4.86172 16.4147 4.69427 16.0736 4.54818 15.7204C4.40417 15.373 4.28047 15.0139 4.17943 14.6452L1.2974 14.3725L1.32813 14.047L1.2974 14.3736C1.12734 14.3577 1 14.2145 1 14.047V10.3944C1 10.2145 1.14505 10.0684 1.32448 10.0663L4.17969 9.79622C4.28073 9.42747 4.40417 9.06862 4.54818 8.72122C4.69453 8.3681 4.86198 8.02695 5.0487 7.69935L3.20286 5.46784L3.45547 5.25872L3.2026 5.4681C3.09245 5.33477 3.10521 5.14076 3.22734 5.02279L5.80625 2.44414C5.93073 2.31966 6.13047 2.31602 6.25911 2.43346L8.47891 4.2694C8.80677 4.08268 9.14766 3.91523 9.50078 3.76914C9.84818 3.62513 10.2068 3.50169 10.5755 3.40065L10.8482 0.518099L11.1737 0.548828L10.8471 0.518099C10.863 0.348047 11.0063 0.220703 11.1737 0.220703H14.8263C15.0063 0.220703 15.1523 0.365495 15.1544 0.544922L15.4245 3.40039ZM16.2479 4.37383C15.8659 4.2155 15.4706 4.08424 15.0646 3.98294C14.9221 3.9582 14.8081 3.84102 14.794 3.6905L15.1206 3.65951L14.7951 3.69023L14.5289 0.876953H11.4711L11.2076 3.66237C11.2065 3.80872 11.1068 3.94154 10.9581 3.97799L10.8794 3.65951L10.9576 3.97747C10.5438 4.07956 10.1409 4.21263 9.75182 4.37409C9.3638 4.53503 8.98906 4.72461 8.63047 4.94023C8.51276 5.01966 8.3526 5.01602 8.2375 4.92122L8.44661 4.66836L8.23776 4.9207L6.05938 3.11888L3.89818 5.28008L5.68958 7.4457C5.78542 7.55039 5.80547 7.70951 5.72839 7.83711L5.72786 7.83685C5.50885 8.19961 5.31615 8.57904 5.15313 8.97253C4.99479 9.35456 4.86354 9.75013 4.76198 10.1561C4.7375 10.2986 4.62031 10.4126 4.46953 10.4267L4.4388 10.1001L4.46953 10.4257L1.65625 10.6918V13.7496L4.44115 14.0129C4.5875 14.0142 4.72031 14.1139 4.75703 14.2624L4.43828 14.3413L4.75625 14.2629C4.85859 14.6772 4.99167 15.0801 5.15313 15.4694C5.31406 15.8574 5.50365 16.2322 5.71927 16.5908C5.7987 16.7082 5.79505 16.8686 5.70026 16.9835L5.4474 16.7743L5.69974 16.9832L3.89818 19.1613L6.05938 21.3225L8.22448 19.5314C8.32917 19.4353 8.48854 19.415 8.61641 19.4923L8.61615 19.4926C8.97917 19.7116 9.35885 19.9043 9.75208 20.0676C10.1341 20.2259 10.5294 20.3572 10.9354 20.4585C11.0779 20.4829 11.1919 20.6004 11.2063 20.7509L10.8794 20.7819L11.2049 20.7512L11.4711 23.5645H14.5289L14.7922 20.7796C14.7935 20.6332 14.8932 20.5004 15.0419 20.4637L15.1206 20.7824L15.0422 20.4645C15.4565 20.3621 15.8594 20.229 16.2487 20.0676C16.6367 19.9066 17.0115 19.7171 17.3701 19.5014C17.4875 19.422 17.6479 19.4257 17.7628 19.5204L17.5536 19.7733L17.7625 19.521L19.9406 21.3225L22.1018 19.1613L20.3107 16.9962C20.2146 16.8915 20.1943 16.7322 20.2716 16.6043L20.2719 16.6046C20.4909 16.2415 20.6836 15.8618 20.8469 15.4686C21.0052 15.0866 21.1365 14.6913 21.2378 14.2853C21.2625 14.1428 21.3797 14.0288 21.5302 14.0145L21.5612 14.3413L21.5305 14.0158L24.3438 13.7496V10.6918L21.5589 10.4285C21.4125 10.4272 21.2797 10.3275 21.243 10.1788L21.5617 10.1001L21.2438 10.1783C21.1414 9.76419 21.0083 9.36133 20.8469 8.97201C20.6859 8.58398 20.4964 8.20925 20.2807 7.85065C20.2013 7.7332 20.2049 7.57279 20.2997 7.45794L20.5526 7.66706L20.3003 7.4582L22.1018 5.28008L19.9406 3.11888L17.7755 4.91003C17.6708 5.00612 17.5115 5.02643 17.3836 4.94909L17.3839 4.94883C17.0208 4.72956 16.6411 4.53711 16.2479 4.37383Z" fill="white"/>
<path d="M15.4245 3.40039C15.793 3.50169 16.1518 3.62487 16.499 3.76888C16.8521 3.91523 17.1932 4.08268 17.5211 4.26966L19.7529 2.42357L19.9617 2.67617L19.7526 2.42331C19.8859 2.31315 20.0799 2.32591 20.1979 2.44805L22.7766 5.02695V5.02669C22.901 5.15143 22.9047 5.35117 22.7872 5.47982L20.9516 7.69909C21.1383 8.02669 21.3057 8.36784 21.4518 8.7207C21.5958 9.06836 21.7195 9.42747 21.8206 9.79622L24.7026 10.0689L24.6719 10.3944L24.7026 10.0678C24.8727 10.0837 25 10.227 25 10.3944V14.047C25 14.227 24.8549 14.373 24.6755 14.3751L21.8201 14.6452C21.719 15.0137 21.5958 15.3725 21.4518 15.7197C21.3055 16.0728 21.138 16.4139 20.951 16.7418L22.7971 18.9736L22.5445 19.1824L22.7974 18.9733C22.9076 19.1064 22.8948 19.3007 22.7727 19.4186L20.1938 21.9973H20.194C20.0693 22.1217 19.8695 22.1254 19.7409 22.0079L17.5216 20.1723C17.194 20.359 16.8529 20.5264 16.5 20.6725C16.1523 20.8165 15.7932 20.9402 15.4245 21.0413L15.1518 23.9233L14.8263 23.8926L15.1529 23.9233C15.137 24.0934 14.9938 24.2207 14.8263 24.2207H11.1737C10.9938 24.2207 10.8477 24.0757 10.8456 23.8962L10.5755 21.0408C10.207 20.9397 9.84818 20.8165 9.50104 20.6725C9.14792 20.5259 8.80677 20.3587 8.47891 20.1717L6.24714 22.0178L6.03828 21.7652L6.2474 22.0181C6.11432 22.1283 5.92005 22.1155 5.80208 21.9934L3.22344 19.4145C3.09896 19.29 3.09531 19.0902 3.21276 18.9616L5.04844 16.7423C4.86172 16.4147 4.69427 16.0736 4.54818 15.7204C4.40417 15.373 4.28047 15.0139 4.17943 14.6452L1.2974 14.3725L1.32813 14.047L1.2974 14.3736C1.12734 14.3577 1 14.2145 1 14.047V10.3944C1 10.2145 1.14505 10.0684 1.32448 10.0663L4.17969 9.79622C4.28073 9.42747 4.40417 9.06862 4.54818 8.72122C4.69453 8.3681 4.86198 8.02695 5.0487 7.69935L3.20286 5.46784L3.45547 5.25872L3.2026 5.4681C3.09245 5.33477 3.10521 5.14076 3.22734 5.02279L5.80625 2.44414C5.93073 2.31966 6.13047 2.31602 6.25911 2.43346L8.47891 4.2694C8.80677 4.08268 9.14766 3.91523 9.50078 3.76914C9.84818 3.62513 10.2068 3.50169 10.5755 3.40065L10.8482 0.518099L11.1737 0.548828L10.8471 0.518099C10.863 0.348047 11.0063 0.220703 11.1737 0.220703H14.8263C15.0063 0.220703 15.1523 0.365495 15.1544 0.544922L15.4245 3.40039ZM16.2479 4.37383C15.8659 4.2155 15.4706 4.08424 15.0646 3.98294C14.9221 3.9582 14.8081 3.84102 14.794 3.6905L15.1206 3.65951L14.7951 3.69023L14.5289 0.876953H11.4711L11.2076 3.66237C11.2065 3.80872 11.1068 3.94154 10.9581 3.97799L10.8794 3.65951L10.9576 3.97747C10.5438 4.07956 10.1409 4.21263 9.75182 4.37409C9.3638 4.53503 8.98906 4.72461 8.63047 4.94023C8.51276 5.01966 8.3526 5.01602 8.2375 4.92122L8.44661 4.66836L8.23776 4.9207L6.05938 3.11888L3.89818 5.28008L5.68958 7.4457C5.78542 7.55039 5.80547 7.70951 5.72839 7.83711L5.72786 7.83685C5.50885 8.19961 5.31615 8.57904 5.15313 8.97253C4.99479 9.35456 4.86354 9.75013 4.76198 10.1561C4.7375 10.2986 4.62031 10.4126 4.46953 10.4267L4.4388 10.1001L4.46953 10.4257L1.65625 10.6918V13.7496L4.44115 14.0129C4.5875 14.0142 4.72031 14.1139 4.75703 14.2624L4.43828 14.3413L4.75625 14.2629C4.85859 14.6772 4.99167 15.0801 5.15313 15.4694C5.31406 15.8574 5.50365 16.2322 5.71927 16.5908C5.7987 16.7082 5.79505 16.8686 5.70026 16.9835L5.4474 16.7743L5.69974 16.9832L3.89818 19.1613L6.05938 21.3225L8.22448 19.5314C8.32917 19.4353 8.48854 19.415 8.61641 19.4923L8.61615 19.4926C8.97917 19.7116 9.35885 19.9043 9.75208 20.0676C10.1341 20.2259 10.5294 20.3572 10.9354 20.4585C11.0779 20.4829 11.1919 20.6004 11.2063 20.7509L10.8794 20.7819L11.2049 20.7512L11.4711 23.5645H14.5289L14.7922 20.7796C14.7935 20.6332 14.8932 20.5004 15.0419 20.4637L15.1206 20.7824L15.0422 20.4645C15.4565 20.3621 15.8594 20.229 16.2487 20.0676C16.6367 19.9066 17.0115 19.7171 17.3701 19.5014C17.4875 19.422 17.6479 19.4257 17.7628 19.5204L17.5536 19.7733L17.7625 19.521L19.9406 21.3225L22.1018 19.1613L20.3107 16.9962C20.2146 16.8915 20.1943 16.7322 20.2716 16.6043L20.2719 16.6046C20.4909 16.2415 20.6836 15.8618 20.8469 15.4686C21.0052 15.0866 21.1365 14.6913 21.2378 14.2853C21.2625 14.1428 21.3797 14.0288 21.5302 14.0145L21.5612 14.3413L21.5305 14.0158L24.3438 13.7496V10.6918L21.5589 10.4285C21.4125 10.4272 21.2797 10.3275 21.243 10.1788L21.5617 10.1001L21.2438 10.1783C21.1414 9.76419 21.0083 9.36133 20.8469 8.97201C20.6859 8.58398 20.4964 8.20925 20.2807 7.85065C20.2013 7.7332 20.2049 7.57279 20.2997 7.45794L20.5526 7.66706L20.3003 7.4582L22.1018 5.28008L19.9406 3.11888L17.7755 4.91003C17.6708 5.00612 17.5115 5.02643 17.3836 4.94909L17.3839 4.94883C17.0208 4.72956 16.6411 4.53711 16.2479 4.37383Z" stroke="white" stroke-width="0.4" mask="url(#path-1-outside-1_1051_739)"/>
<path d="M13.0001 6.88047C14.4746 6.88047 15.8096 7.47823 16.7758 8.44439C17.7422 9.41082 18.3399 10.7458 18.3399 12.2203C18.3399 13.6948 17.7422 15.0298 16.7758 15.996C16.7758 15.996 16.7758 15.996 16.7757 15.996M13.0001 6.88047L9.29515 15.9253C10.2433 16.8737 11.5532 17.4602 13.0001 17.4602C14.447 17.4602 15.7569 16.8737 16.705 15.9253L16.7757 15.996M13.0001 6.88047C11.5256 6.88047 10.1906 7.47823 9.22444 8.44439C8.25802 9.41082 7.66025 10.7458 7.66025 12.2203C7.66025 13.6948 8.25802 15.0298 9.22445 15.996M13.0001 6.88047L9.22445 15.996M16.7757 15.996C15.8096 16.9624 14.4746 17.5602 13.0001 17.5602C11.5256 17.5602 10.1906 16.9624 9.22445 15.996M16.7757 15.996H9.22445M13.0001 7.73672C14.2384 7.73672 15.3591 8.23844 16.1705 9.04988C16.982 9.86132 17.4837 10.982 17.4837 12.2203C17.4837 13.4586 16.982 14.5793 16.1705 15.3907C15.3591 16.2022 14.2384 16.7039 13.0001 16.7039C11.7618 16.7039 10.6411 16.2022 9.82966 15.3907C9.01822 14.5793 8.5165 13.4586 8.5165 12.2203C8.5165 10.982 9.01822 9.86132 9.82966 9.04988C10.6411 8.23844 11.7618 7.73672 13.0001 7.73672Z" fill="white" stroke="white" stroke-width="0.2"/>
</svg>
