<svg width="20" height="20" viewBox="0 0 20 20" fill="none" xmlns="http://www.w3.org/2000/svg">
<path fill-rule="evenodd" clip-rule="evenodd" d="M3.73203 1.33398H3.66536C3.36003 1.33398 3.09736 1.33398 2.86536 1.38865C2.50621 1.47447 2.17783 1.65805 1.91661 1.91904C1.65538 2.18003 1.47151 2.50824 1.38536 2.86732C1.33203 3.09932 1.33203 3.36065 1.33203 3.66732V7.00065C1.33203 7.30598 1.33203 7.56865 1.3867 7.80065C1.47252 8.1598 1.65609 8.48818 1.91708 8.74941C2.17807 9.01064 2.50629 9.19451 2.86536 9.28065C3.09736 9.33398 3.3587 9.33398 3.66536 9.33398H6.9987C7.30403 9.33398 7.5667 9.33398 7.7987 9.27932C8.15785 9.1935 8.48623 9.00992 8.74746 8.74893C9.00868 8.48794 9.19255 8.15973 9.2787 7.80065C9.33203 7.56865 9.33203 7.30732 9.33203 7.00065V3.66732C9.33203 3.36198 9.33203 3.09932 9.27736 2.86732C9.19155 2.50817 9.00797 2.17978 8.74698 1.91856C8.48599 1.65733 8.15777 1.47346 7.7987 1.38732C7.5667 1.33398 7.30536 1.33398 6.9987 1.33398H3.73203ZM3.17603 2.68598C3.23336 2.67265 3.3227 2.66732 3.73203 2.66732H6.93203C7.3427 2.66732 7.4307 2.67132 7.48803 2.68598C7.6078 2.71463 7.7173 2.77588 7.80438 2.86296C7.89146 2.95005 7.95272 3.05954 7.98136 3.17932C7.9947 3.23532 7.9987 3.32332 7.9987 3.73398V6.93398C7.9987 7.34465 7.9947 7.43265 7.98003 7.48998C7.95139 7.60976 7.89013 7.71926 7.80305 7.80634C7.71597 7.89342 7.60647 7.95468 7.4867 7.98332C7.43203 7.99532 7.34403 8.00065 6.93203 8.00065H3.73203C3.32136 8.00065 3.23336 7.99665 3.17603 7.98198C3.05626 7.95334 2.94676 7.89208 2.85968 7.805C2.7726 7.71792 2.71134 7.60842 2.6827 7.48865C2.6707 7.43398 2.66536 7.34598 2.66536 6.93398V3.73398C2.66536 3.32332 2.66936 3.23532 2.68403 3.17798C2.71267 3.05821 2.77393 2.94871 2.86101 2.86163C2.94809 2.77455 3.05759 2.71329 3.17736 2.68465L3.17603 2.68598ZM13.0654 1.33398H12.9987C12.6934 1.33398 12.4307 1.33398 12.1987 1.38865C11.8395 1.47447 11.5112 1.65805 11.2499 1.91904C10.9887 2.18003 10.8048 2.50824 10.7187 2.86732C10.6654 3.09932 10.6654 3.36065 10.6654 3.66732V7.00065C10.6654 7.30598 10.6654 7.56865 10.72 7.80065C10.8059 8.1598 10.9894 8.48818 11.2504 8.74941C11.5114 9.01064 11.8396 9.19451 12.1987 9.28065C12.4307 9.33398 12.692 9.33398 12.9987 9.33398H16.332C16.6374 9.33398 16.9 9.33398 17.132 9.27932C17.4912 9.1935 17.8196 9.00992 18.0808 8.74893C18.342 8.48794 18.5259 8.15973 18.612 7.80065C18.6654 7.56865 18.6654 7.30732 18.6654 7.00065V3.66732C18.6654 3.36198 18.6654 3.09932 18.6107 2.86732C18.5249 2.50817 18.3413 2.17978 18.0803 1.91856C17.8193 1.65733 17.4911 1.47346 17.132 1.38732C16.9 1.33398 16.6387 1.33398 16.332 1.33398H13.0654ZM12.5094 2.68598C12.5667 2.67265 12.656 2.66732 13.0654 2.66732H16.2654C16.676 2.66732 16.764 2.67132 16.8214 2.68598C16.9411 2.71463 17.0506 2.77588 17.1377 2.86296C17.2248 2.95005 17.2861 3.05954 17.3147 3.17932C17.328 3.23532 17.332 3.32332 17.332 3.73398V6.93398C17.332 7.34465 17.3267 7.43265 17.3134 7.48998C17.2847 7.60976 17.2235 7.71926 17.1364 7.80634C17.0493 7.89342 16.9398 7.95468 16.82 7.98332C16.764 7.99665 16.676 8.00065 16.2654 8.00065H13.0654C12.6547 8.00065 12.5667 7.99665 12.5094 7.98198C12.3896 7.95334 12.2801 7.89208 12.193 7.805C12.1059 7.71792 12.0447 7.60842 12.016 7.48865C12.004 7.43398 11.9987 7.34598 11.9987 6.93398V3.73398C11.9987 3.32332 12.0027 3.23532 12.0174 3.17798C12.046 3.05821 12.1073 2.94871 12.1943 2.86163C12.2814 2.77455 12.3909 2.71329 12.5107 2.68465L12.5094 2.68598ZM3.66536 10.6673H6.9987C7.30403 10.6673 7.5667 10.6673 7.7987 10.722C8.15785 10.8078 8.48623 10.9914 8.74746 11.2524C9.00868 11.5134 9.19255 11.8416 9.2787 12.2007C9.33203 12.4327 9.33203 12.694 9.33203 13.0007V16.334C9.33203 16.6393 9.33203 16.902 9.27736 17.134C9.19155 17.4931 9.00797 17.8215 8.74698 18.0827C8.48599 18.344 8.15777 18.5278 7.7987 18.614C7.5667 18.6673 7.30536 18.6673 6.9987 18.6673H3.66536C3.36003 18.6673 3.09736 18.6673 2.86536 18.6127C2.50621 18.5268 2.17783 18.3433 1.91661 18.0823C1.65538 17.8213 1.47151 17.4931 1.38536 17.134C1.33203 16.902 1.33203 16.6407 1.33203 16.334V13.0007C1.33203 12.6953 1.33203 12.4327 1.3867 12.2007C1.47252 11.8415 1.65609 11.5131 1.91708 11.2519C2.17807 10.9907 2.50629 10.8068 2.86536 10.7207C3.09736 10.6673 3.3587 10.6673 3.66536 10.6673ZM3.73203 12.0007C3.32136 12.0007 3.23336 12.0047 3.17603 12.0193C3.05626 12.048 2.94676 12.1092 2.85968 12.1963C2.7726 12.2834 2.71134 12.3929 2.6827 12.5127C2.6707 12.5673 2.66536 12.6553 2.66536 13.0673V16.2673C2.66536 16.678 2.66936 16.766 2.68403 16.8233C2.71267 16.9431 2.77393 17.0526 2.86101 17.1397C2.94809 17.2268 3.05759 17.288 3.17736 17.3167C3.23336 17.33 3.32136 17.334 3.73203 17.334H6.93203C7.3427 17.334 7.4307 17.3287 7.48803 17.3153C7.6078 17.2867 7.7173 17.2254 7.80438 17.1383C7.89146 17.0513 7.95272 16.9418 7.98136 16.822C7.9947 16.766 7.9987 16.678 7.9987 16.2673V13.0673C7.9987 12.6567 7.9947 12.5687 7.98003 12.5113C7.95139 12.3915 7.89013 12.282 7.80305 12.195C7.71597 12.1079 7.60647 12.0466 7.4867 12.018C7.43203 12.006 7.34403 12.0007 6.93203 12.0007H3.73203ZM13.0654 10.6673H12.9987C12.6934 10.6673 12.4307 10.6673 12.1987 10.722C11.8395 10.8078 11.5112 10.9914 11.2499 11.2524C10.9887 11.5134 10.8048 11.8416 10.7187 12.2007C10.6654 12.4327 10.6654 12.694 10.6654 13.0007V16.334C10.6654 16.6393 10.6654 16.902 10.72 17.134C10.8059 17.4931 10.9894 17.8215 11.2504 18.0827C11.5114 18.344 11.8396 18.5278 12.1987 18.614C12.4307 18.6687 12.6934 18.6687 12.9987 18.6687H16.332C16.6374 18.6687 16.9 18.6687 17.132 18.614C17.4909 18.5279 17.819 18.3443 18.08 18.0833C18.341 17.8223 18.5247 17.4942 18.6107 17.1353C18.6654 16.9033 18.6654 16.6407 18.6654 16.3353V13.0007C18.6654 12.6953 18.6654 12.4327 18.6107 12.2007C18.5249 11.8415 18.3413 11.5131 18.0803 11.2519C17.8193 10.9907 17.4911 10.8068 17.132 10.7207C16.9 10.6673 16.6387 10.6673 16.332 10.6673H13.0654ZM12.5094 12.0193C12.5667 12.006 12.656 12.0007 13.0654 12.0007H16.2654C16.676 12.0007 16.764 12.0047 16.8214 12.0193C16.9411 12.048 17.0506 12.1092 17.1377 12.1963C17.2248 12.2834 17.2861 12.3929 17.3147 12.5127C17.328 12.5687 17.332 12.6567 17.332 13.0673V16.2673C17.332 16.678 17.3267 16.766 17.3134 16.8233C17.2847 16.9431 17.2235 17.0526 17.1364 17.1397C17.0493 17.2268 16.9398 17.288 16.82 17.3167C16.764 17.33 16.676 17.334 16.2654 17.334H13.0654C12.6547 17.334 12.5667 17.3287 12.5094 17.3153C12.3896 17.2867 12.2801 17.2254 12.193 17.1383C12.1059 17.0513 12.0447 16.9418 12.016 16.822C12.004 16.7673 11.9987 16.6793 11.9987 16.2673V13.0673C11.9987 12.6567 12.0027 12.5687 12.0174 12.5113C12.046 12.3915 12.1073 12.282 12.1943 12.195C12.2814 12.1079 12.3909 12.0466 12.5107 12.018L12.5094 12.0193Z" fill="white"/>
</svg>
