<svg width="18" height="25" viewBox="0 0 18 25" fill="none" xmlns="http://www.w3.org/2000/svg">
<path d="M13.1995 3.82148H11.4013C11.069 3.82148 10.8005 3.55091 10.8005 3.2207C10.8005 2.22773 9.99297 1.42018 9 1.42018C8.00703 1.42018 7.19948 2.22773 7.19948 3.2207C7.19948 3.55091 6.93099 3.82148 6.60078 3.82148H4.80052V6.2207H13.1995V3.82148ZM13.8005 14.0212C14.463 14.0212 15 14.5579 15 15.2207C15 15.8835 14.463 16.4202 13.8005 16.4202C13.1378 16.4202 12.5987 15.8835 12.5987 15.2207C12.5987 14.5579 13.1378 14.0212 13.8005 14.0212ZM9 14.0212C9.66276 14.0212 10.2018 14.5579 10.2018 15.2207C10.2018 15.8835 9.66276 16.4202 9 16.4202C8.33724 16.4202 7.80052 15.8835 7.80052 15.2207C7.80052 14.5579 8.33724 14.0212 9 14.0212ZM4.19948 14.0212C4.86224 14.0212 5.39922 14.5579 5.39922 15.2207C5.39922 15.8835 4.86224 16.4202 4.19948 16.4202C3.53698 16.4202 3 15.8835 3 15.2207C3 14.5579 3.53698 14.0212 4.19948 14.0212ZM14.4013 3.82148H17.4013C17.7315 3.82148 18 4.08997 18 4.42018V23.6199C18 23.9522 17.7315 24.2207 17.4013 24.2207H0.600781C0.26849 24.2207 0 23.9522 0 23.6199V4.42018C0 4.08997 0.26849 3.82148 0.600781 3.82148H3.60078V3.2207C3.60078 2.89049 3.86927 2.62201 4.19948 2.62201H6.05964C6.3388 1.25195 7.54896 0.220703 9 0.220703C10.451 0.220703 11.6612 1.25195 11.9404 2.62201H13.8005C14.1307 2.62201 14.4013 2.89049 14.4013 3.2207V3.82148ZM14.4013 5.02122V6.82148C14.4013 7.15169 14.1307 7.42018 13.8005 7.42018H4.19948C3.86927 7.42018 3.60078 7.15169 3.60078 6.82148V5.02122H1.19948V23.0212H16.8005V5.02122H14.4013Z" fill="white"/>
</svg>
