<svg width="24" height="25" viewBox="0 0 24 25" fill="none" xmlns="http://www.w3.org/2000/svg">
<mask id="mask0_1051_781" style="mask-type:luminance" maskUnits="userSpaceOnUse" x="0" y="6" width="21" height="19">
<path d="M1 7.02305H0.9V7.12305V24.7812V24.8812H1H20.0694H20.1694V24.7812V7.12305V7.02305H20.0694H1Z" fill="white" stroke="white" stroke-width="0.2"/>
</mask>
<g mask="url(#mask0_1051_781)">
<path d="M7.56804 23.5709L5.34902 19.724L5.34896 19.7239C5.271 19.5891 5.12709 19.5054 4.97078 19.5054H3.31417C2.46518 19.5054 1.77389 18.814 1.77389 17.9638V9.45254C1.77389 8.60235 2.46518 7.91092 3.31417 7.91092H11.6911C11.9326 7.91092 12.1279 7.71515 12.1279 7.47382C12.1279 7.23249 11.9326 7.03672 11.6911 7.03672H3.31417C1.98296 7.03672 0.900488 8.12044 0.900488 9.45254V17.9638C0.900488 19.2959 1.98296 20.3796 3.31417 20.3796H4.71851L7.18981 24.6637L7.27643 24.6137L7.18981 24.6637C7.26784 24.799 7.41186 24.8823 7.56805 24.8823C7.72408 24.8823 7.86848 24.7991 7.94632 24.6637C7.94634 24.6636 7.94636 24.6636 7.94638 24.6635L10.4173 20.3796H17.7463C19.0775 20.3796 20.1603 19.2959 20.1603 17.9638V10.8975C20.1603 10.6562 19.965 10.4604 19.7234 10.4604C19.4822 10.4604 19.2866 10.6561 19.2866 10.8975V17.9638C19.2866 18.814 18.5956 19.5054 17.7463 19.5054H10.1651C10.0091 19.5054 9.86486 19.5891 9.78688 19.7239L9.78681 19.724L7.56804 23.5709Z" fill="white" stroke="white" stroke-width="0.2"/>
</g>
<path d="M4.87205 13.7065C4.87205 13.2364 5.25408 12.8543 5.72342 12.8543C6.19248 12.8543 6.57453 13.2364 6.57453 13.7065C6.57453 14.1762 6.1925 14.5584 5.72342 14.5584C5.25406 14.5584 4.87205 14.1762 4.87205 13.7065ZM3.99839 13.7065C3.99839 14.6581 4.77214 15.4326 5.72342 15.4326C6.67445 15.4326 7.44819 14.6581 7.44819 13.7065C7.44819 12.7545 6.67446 11.9801 5.72342 11.9801C4.77213 11.9801 3.99839 12.7545 3.99839 13.7065Z" fill="white" stroke="white" stroke-width="0.2"/>
<path d="M9.67869 13.7065C9.67869 13.2364 10.0607 12.8543 10.5298 12.8543C10.9991 12.8543 11.3812 13.2364 11.3812 13.7065C11.3812 14.1762 10.9992 14.5584 10.5298 14.5584C10.0607 14.5584 9.67869 14.1762 9.67869 13.7065ZM8.80503 13.7065C8.80503 14.6581 9.57877 15.4326 10.5298 15.4326C11.4811 15.4326 12.2548 14.6581 12.2548 13.7065C12.2548 12.7545 11.4811 11.9801 10.5298 11.9801C9.57876 11.9801 8.80503 12.7545 8.80503 13.7065Z" fill="white" stroke="white" stroke-width="0.2"/>
<path d="M14.4853 13.7065C14.4853 13.2364 14.8674 12.8543 15.3364 12.8543C15.8058 12.8543 16.1878 13.2364 16.1878 13.7065C16.1878 14.1762 15.8058 14.5584 15.3364 14.5584C14.8674 14.5584 14.4853 14.1762 14.4853 13.7065ZM13.6117 13.7065C13.6117 14.6581 14.3851 15.4326 15.3364 15.4326C16.2877 15.4326 17.0615 14.6581 17.0615 13.7065C17.0615 12.7545 16.2877 11.9801 15.3364 11.9801C14.3851 11.9801 13.6117 12.7545 13.6117 13.7065Z" fill="white" stroke="white" stroke-width="0.2"/>
<mask id="mask1_1051_781" style="mask-type:luminance" maskUnits="userSpaceOnUse" x="19" y="5" width="5" height="4">
<path d="M19.8928 5.88242H19.7928V5.98242V8.19765V8.29765H19.8928H22.9842H23.0842V8.19765V5.98242V5.88242H22.9842H19.8928Z" fill="white" stroke="white" stroke-width="0.2"/>
</mask>
<g mask="url(#mask1_1051_781)">
<path d="M20.2448 8.28558H21.8869C22.5477 8.28558 23.0847 7.74793 23.0847 7.08707C23.0847 6.42596 22.5477 5.88828 21.8869 5.88828C21.6456 5.88828 21.4504 6.0841 21.4504 6.32538C21.4504 6.56666 21.6456 6.76248 21.8869 6.76248C22.0654 6.76248 22.211 6.90807 22.211 7.08707C22.211 7.26598 22.0655 7.41138 21.8869 7.41138H20.2448C20.0035 7.41138 19.808 7.60742 19.808 7.84848C19.808 8.08987 20.0036 8.28558 20.2448 8.28558Z" fill="white" stroke="white" stroke-width="0.2"/>
</g>
<path d="M20.0458 9.81124H21.7035C22.364 9.81124 22.9009 9.27327 22.9009 8.61246C22.9009 7.95165 22.364 7.41367 21.7035 7.41367C21.4619 7.41367 21.2667 7.60976 21.2667 7.85077C21.2667 8.0921 21.462 8.28787 21.7035 8.28787C21.882 8.28787 22.0275 8.43347 22.0275 8.61246C22.0275 8.79145 21.882 8.93704 21.7035 8.93704H20.0458C19.8046 8.93704 19.609 9.13276 19.609 9.37414C19.609 9.61553 19.8046 9.81124 20.0458 9.81124Z" fill="white" stroke="white" stroke-width="0.2"/>
<path d="M15.1383 10.7123L15.1379 10.7121C15.0279 10.6422 14.9476 10.5919 14.8664 10.5663C14.8664 10.5663 14.8664 10.5663 14.8664 10.5663C14.8663 10.5663 14.8637 10.5656 14.8574 10.565C14.8506 10.5642 14.8418 10.5637 14.8306 10.5634C14.8077 10.5629 14.7809 10.5636 14.7498 10.5644L14.7495 10.5644L14.7478 10.5644C14.7263 10.565 14.7043 10.5655 14.682 10.5658L14.6816 10.5658L14.3359 10.5684L14.3351 10.5684V10.5684H14.3351H14.3351H14.3351H14.3351H14.3351H14.3351H14.3351H14.3351H14.3351H14.3351H14.3351H14.3351H14.335H14.335H14.335H14.335H14.335H14.335H14.335H14.335H14.335H14.335H14.335H14.335H14.335H14.335H14.335H14.335H14.3349H14.3349H14.3349H14.3349H14.3349H14.3349H14.3349H14.3349H14.3349H14.3349H14.3349H14.3349H14.3349H14.3349H14.3349H14.3349H14.3348H14.3348H14.3348H14.3348H14.3348H14.3348H14.3348H14.3348H14.3348H14.3348H14.3348H14.3348H14.3348H14.3348H14.3348H14.3348H14.3348H14.3347H14.3347H14.3347H14.3347H14.3347H14.3347H14.3347H14.3347H14.3347H14.3347H14.3347H14.3347H14.3347H14.3347H14.3347H14.3347H14.3347H14.3346H14.3346H14.3346H14.3346H14.3346H14.3346H14.3346H14.3346H14.3346H14.3346H14.3346H14.3346H14.3346H14.3346H14.3346H14.3346H14.3346H14.3345H14.3345H14.3345H14.3345H14.3345H14.3345H14.3345H14.3345H14.3345H14.3345H14.3345H14.3345H14.3345H14.3345H14.3345H14.3345H14.3345H14.3345H14.3344H14.3344H14.3344H14.3344H14.3344H14.3344H14.3344H14.3344H14.3344H14.3344H14.3344H14.3344H14.3344H14.3344H14.3344H14.3344H14.3344H14.3343H14.3343H14.3343H14.3343H14.3343H14.3343H14.3343H14.3343H14.3343H14.3343H14.3343H14.3343H14.3343H14.3343H14.3343H14.3343H14.3343H14.3343H14.3342H14.3342H14.3342H14.3342H14.3342H14.3342H14.3342H14.3342H14.3342H14.3342H14.3342H14.3342H14.3342H14.3342H14.3342H14.3342H14.3342H14.3342H14.3341H14.3341H14.3341H14.3341H14.3341H14.3341H14.3341H14.3341H14.3341H14.3341H14.3341H14.3341H14.3341H14.3341H14.3341H14.3341H14.3341H14.3341H14.334H14.334H14.334H14.334H14.334H14.334H14.334H14.334H14.334H14.334H14.334H14.334H14.334H14.334H14.334H14.334H14.334H14.334H14.3339H14.3339H14.3339H14.3339H14.3339H14.3339H14.3339H14.3339H14.3339H14.3339H14.3339H14.3339H14.3339H14.3339H14.3339H14.3339H14.3339H14.3339H14.3338H14.3338H14.3338H14.3338H14.3338H14.3338H14.3338H14.3338H14.3338H14.3338H14.3338H14.3338H14.3338H14.3338H14.3338H14.3338H14.3338H14.3338H14.3337H14.3337H14.3337H14.3337H14.3337H14.3337H14.3337H14.3337H14.3337H14.3337H14.3337H14.3337H14.3337H14.3337H14.3337H14.3337H14.3337H14.3337H14.3336H14.3336H14.3336H14.3336H14.3336H14.3336H14.3336H14.3336H14.3336H14.3336H14.3336H14.3336H14.3336H14.3336H14.3336H14.3336H14.3336H14.3336H14.3336H14.3335H14.3335H14.3335H14.3335H14.3335H14.3335H14.3335H14.3335H14.3335H14.3335H14.3335H14.3335H14.3335H14.3335H14.3335H14.3335H14.3335H14.3335H14.3334H14.3334H14.3334H14.3334H14.3334H14.3334H14.3334H14.3334H14.3334H14.3334H14.3334H14.3334H14.3334H14.3334H14.3334H14.3334H14.3334H14.3334H14.3333H14.3333H14.3333H14.3333H14.3333H14.3333H14.3333H14.3333H14.3333H14.3333H14.3333H14.3333H14.3333H14.3333H14.3333H14.3333H14.3333H14.3333H14.3332H14.3332H14.3332H14.3332H14.3332H14.3332H14.3332H14.3332H14.3332H14.3332H14.3332H14.3332H14.3332H14.3332H14.3332H14.3332H14.3332H14.3332H14.3331H14.3331H14.3331H14.3331H14.3331H14.3331H14.3331H14.3331H14.3331H14.3331H14.3331H14.3331H14.3331H14.3331H14.3331H14.3331H14.3331H14.3331H14.333H14.333H14.333H14.333H14.333H14.333H14.333H14.333H14.333H14.333H14.333H14.333H14.333H14.333H14.333H14.333H14.333H14.3329H14.3329H14.3329H14.3329H14.3329H14.3329H14.3329H14.3329H14.3329H14.3329H14.3329H14.3329H14.3329H14.3329H14.3329H14.3329H14.3329H14.3329H14.3328H14.3328H14.3328H14.3328H14.3328H14.3328H14.3328H14.3328H14.3328H14.3328H14.3328H14.3328H14.3328H14.3328H14.3328H14.3328H14.3328H14.3327H14.3327H14.3327H14.3327H14.3327H14.3327H14.3327H14.3327H14.3327H14.3327H14.3327H14.3327H14.3327H14.3327H14.3327H14.3327H14.3327H14.3326H14.3326H14.3326H14.3326H14.3326H14.3326H14.3326H14.3326H14.3326H14.3326H14.3326H14.3326H14.3326H14.3326H14.3326H14.3326H14.3326H14.3325H14.3325H14.3325H14.3325H14.3325H14.3325H14.3325H14.3325H14.3325H14.3325H14.3325H14.3325H14.3325H14.3325H14.3325H14.3325H14.3325H14.3324H14.3324H14.3324H14.3324H14.3324H14.3324H14.3324H14.3324H14.3324H14.3324H14.3324H14.3324H14.3324H14.3324H14.3324H14.3324H14.3324H14.3323H14.3323H14.3323H14.3323H14.3323H14.3323H14.3323H14.3323H14.3323H14.3323H14.3323H14.3323H14.3323H14.3323H14.3323H14.3323H14.3322H14.3322H14.3322H14.3322H14.3322H14.3322H14.3322H14.3322H14.3322H14.3322H14.3322C14.0927 10.5684 13.8974 10.3752 13.8956 10.1348C13.8936 9.89339 14.0875 9.69633 14.3286 9.69425L14.3287 9.69425L14.6743 9.69158C14.6913 9.69132 14.7086 9.69081 14.7268 9.69028L14.7274 9.69026L14.7274 9.69026C14.7295 9.69021 14.7316 9.69016 14.7337 9.69011C14.8348 9.68771 14.9752 9.68438 15.1275 9.73227C15.3195 9.7923 15.4737 9.88996 15.6001 9.97002L15.6055 9.97344L15.6057 9.97356L15.6352 9.99229L15.6636 10.0104C15.7923 10.0905 15.9003 10.1452 16.005 10.1846L15.9698 10.2782L16.0048 10.1846C16.3133 10.3 16.6518 10.3485 17.0438 10.3967L15.1383 10.7123ZM15.1383 10.7123C15.1456 10.7169 15.1533 10.7217 15.1611 10.7267C15.1744 10.7351 15.1882 10.7439 15.2016 10.7521M15.1383 10.7123L15.2016 10.7521M18.1976 10.4602V10.4602L18.2036 10.4601C18.2061 10.4601 18.21 10.4601 18.2145 10.4602H21.335C21.5135 10.4602 21.6591 10.3146 21.6591 10.1356C21.6591 9.95672 21.5136 9.81131 21.335 9.81131C21.0938 9.81131 20.8982 9.61559 20.8982 9.37421C20.8982 9.13283 21.0938 8.93711 21.335 8.93711C21.9955 8.93711 22.5327 9.47475 22.5327 10.1356C22.5327 10.7968 21.9955 11.3344 21.335 11.3344H18.2099C18.1506 11.336 18.091 11.3366 18.0312 11.3366C17.6899 11.3366 17.33 11.3127 16.9373 11.2644M18.1976 10.4602L16.9373 11.2644M18.1976 10.4602L18.195 10.4602M18.1976 10.4602L18.195 10.4602M16.9373 11.2644C16.519 11.213 16.1006 11.1537 15.699 11.0033C15.5381 10.943 15.3754 10.8606 15.2016 10.7521M16.9373 11.2644L15.2016 10.7521M18.195 10.4602C17.8437 10.4695 17.4675 10.4487 17.0439 10.3968L18.195 10.4602Z" fill="white" stroke="white" stroke-width="0.2"/>
<path d="M18.1325 3.92521L18.1326 3.92504C18.1868 3.8092 18.2437 3.69683 18.2979 3.58974L18.298 3.5896C18.4066 3.37587 18.505 3.18129 18.5757 2.97697C18.7493 2.47492 18.8781 1.78573 18.5869 1.23579C18.5846 1.23254 18.5818 1.22868 18.578 1.22337L18.5773 1.22248C18.4944 1.11088 18.3921 1.03562 18.3024 1.00837L18.3021 1.00826C18.1785 0.970204 18.0627 1.01375 18.0124 1.09104L18.0123 1.09128C18.0033 1.10501 17.9952 1.1259 17.9908 1.16539C17.9863 1.20599 17.9864 1.25922 17.9894 1.33427L17.9894 1.33428C17.9995 1.58279 17.9892 1.80792 17.9577 2.02278L17.9577 2.02285C17.8931 2.46072 17.76 2.85177 17.5602 3.18539C17.5496 3.22087 17.5343 3.25597 17.5135 3.28959C17.4987 3.31399 17.4122 3.45249 17.2643 3.6519C17.2632 3.65353 17.2622 3.65484 17.2615 3.65581L17.2587 3.66042L17.2583 3.66012C17.0283 3.96893 16.6511 4.42224 16.1631 4.82068C15.6757 5.21864 15.0716 5.56703 14.3886 5.65553C14.3886 5.65554 14.3885 5.65554 14.3885 5.65554L14.3756 5.55637L18.1325 3.92521ZM18.1325 3.92521C18.005 4.19885 17.9404 4.49477 17.9404 4.80405C17.9404 5.04544 18.136 5.24115 18.3772 5.24115H21.5931C21.7715 5.24115 21.9171 5.38674 21.9171 5.56574C21.9171 5.74442 21.7716 5.89005 21.5931 5.89005H20.3442C20.103 5.89005 19.9074 6.08577 19.9074 6.32715C19.9074 6.56854 20.103 6.76425 20.3442 6.76425H21.5931C22.2535 6.76425 22.7908 6.22661 22.7908 5.56574C22.7908 4.90461 22.2535 4.36695 21.5931 4.36695H18.8936M18.1325 3.92521L18.2231 3.96746M18.2231 3.96746C18.2766 3.85322 18.3328 3.74219 18.3871 3.6349C18.4952 3.42221 18.5969 3.22155 18.6702 3.00966C18.846 2.50134 18.988 1.7739 18.6726 1.18397C18.6688 1.1782 18.6643 1.17199 18.6593 1.16515L18.6576 1.16284C18.5656 1.03897 18.4468 0.947736 18.3315 0.912688C18.1734 0.863996 18.0075 0.915096 17.9286 1.03656C17.8876 1.09916 17.8834 1.18745 17.8895 1.33834C17.8994 1.58154 17.8892 1.80038 17.8587 2.00826C17.7951 2.44007 17.6634 2.82212 17.4676 3.14531C17.4593 3.17688 17.4465 3.20791 17.4283 3.23734C17.4154 3.25848 17.3296 3.39626 17.1813 3.59584M18.2231 3.96746L17.1781 3.60039C17.1789 3.59905 17.1797 3.59798 17.1808 3.59665C17.1811 3.59638 17.1813 3.59611 17.1813 3.59584M18.2231 3.96746C18.1019 4.2275 18.0404 4.50896 18.0404 4.80405C18.0404 4.99026 18.1913 5.14115 18.3772 5.14115H21.5931C21.8269 5.14115 22.0171 5.33164 22.0171 5.56574C22.0171 5.79957 21.8269 5.99005 21.5931 5.99005H20.3442C20.1582 5.99005 20.0074 6.14095 20.0074 6.32715C20.0074 6.51336 20.1582 6.66425 20.3442 6.66425H21.5931C22.1982 6.66425 22.6908 6.17145 22.6908 5.56574C22.6908 4.95976 22.1982 4.46695 21.5931 4.46695H18.86C18.8697 4.43315 18.8809 4.39979 18.8936 4.36695M17.1813 3.59584L17.2267 3.62953L17.2615 3.6554L17.1813 3.59584ZM18.8936 4.36695C18.9031 4.34261 18.9133 4.31856 18.9243 4.29484L18.8936 4.36695ZM16.5359 3.16395L16.5362 3.1635C16.5458 3.14762 16.5604 3.12417 16.5815 3.09117L16.5816 3.09112C16.6227 3.0268 16.6882 2.92589 16.7757 2.79162L16.7758 2.79142C16.9333 2.5509 17.0413 2.25043 17.0934 1.89529L17.0934 1.89526C17.1167 1.73684 17.1246 1.56527 17.1165 1.37004L17.1165 1.36989C17.1078 1.15287 17.1093 0.876811 17.2802 0.613905L17.2803 0.613877C17.548 0.202549 18.0742 0.0241701 18.5577 0.172301L16.5359 3.16395ZM16.5359 3.16395L16.5356 3.16452C16.5343 3.16661 16.5326 3.16943 16.5308 3.17263L16.5359 3.16395ZM19.2783 0.700788L19.2784 0.700892C19.2964 0.725208 19.3132 0.748713 19.3284 0.772723M19.2783 0.700788L18.9243 4.29483C18.9719 4.19257 19.0225 4.09265 19.0772 3.98524L19.0772 3.98509L19.0802 3.97921C19.1921 3.75838 19.3111 3.52343 19.4012 3.26254C19.7247 2.32699 19.7125 1.47212 19.3449 0.800217L19.3446 0.799647C19.3398 0.791026 19.3344 0.781899 19.3284 0.772723M19.2783 0.700788C19.0888 0.44601 18.834 0.256929 18.5577 0.172305L19.2783 0.700788ZM19.3284 0.772723C19.3283 0.772509 19.3282 0.772294 19.328 0.77208L19.2443 0.826808L19.3288 0.773329C19.3287 0.773127 19.3286 0.772925 19.3284 0.772723Z" fill="white" stroke="white" stroke-width="0.2"/>
<path d="M13.8957 4.99881V10.3968H12.1274V4.99881H13.8957ZM11.6906 11.271H14.3325C14.5739 11.271 14.7691 11.0752 14.7691 10.8339V4.56171C14.7691 4.32043 14.5739 4.12461 14.3325 4.12461H11.6906C11.4494 4.12461 11.2538 4.32032 11.2538 4.56171V10.8339C11.2538 11.0753 11.4494 11.271 11.6906 11.271Z" fill="white" stroke="white" stroke-width="0.2"/>
</svg>
