<svg width="25" height="23" viewBox="0 0 25 23" fill="none" xmlns="http://www.w3.org/2000/svg">
<path d="M19.9429 11.1177C19.9429 6.62778 16.5366 2.97461 12.3489 2.97461C8.16237 2.97461 4.75562 6.62825 4.75562 11.1177C4.75562 15.6089 8.16237 19.262 12.3489 19.262C16.5366 19.262 19.9429 15.6089 19.9429 11.1177ZM12.3489 3.85357C15.1601 3.85357 17.5703 5.73422 18.5694 8.39135C17.9692 7.92961 17.27 7.37128 16.9244 7.02144L16.6937 6.78939L16.4056 6.94322C16.3903 6.95171 14.8409 7.75952 12.3494 7.75952C9.85785 7.75952 8.30937 6.95123 8.295 6.9437L8.00594 6.78821L7.77413 7.02144C7.42876 7.37128 6.72956 7.92961 6.12929 8.39135C7.1284 5.73422 9.53817 3.85357 12.3489 3.85357ZM5.63386 11.1177C5.63386 10.6593 5.67815 10.2115 5.75331 9.77586C6.19785 9.44746 7.46787 8.49689 8.17203 7.85563C8.76923 8.11312 10.2461 8.638 12.3489 8.638C14.4522 8.638 15.9283 8.11312 16.5265 7.85563C17.2309 8.49689 18.5009 9.44746 18.945 9.77586C19.021 10.2115 19.0644 10.6593 19.0644 11.1177C19.0644 15.1236 16.052 18.3831 12.3489 18.3831C8.64625 18.3831 5.63386 15.1236 5.63386 11.1177Z" fill="white"/>
<mask id="mask0_1051_801" style="mask-type:luminance" maskUnits="userSpaceOnUse" x="0" y="0" width="25" height="23">
<path d="M0 0.78125H24.6664V22.4925H0V0.78125Z" fill="white"/>
</mask>
<g mask="url(#mask0_1051_801)">
<path d="M24.3706 9.30532C24.0678 8.56205 23.6108 8.07864 23.0108 7.86991C22.334 7.63386 21.6762 7.82939 21.344 7.9665C20.1553 3.75806 16.6277 0.78125 12.3488 0.78125C8.07041 0.78125 4.54257 3.75806 3.35406 7.96697C3.02165 7.83081 2.36367 7.6348 1.68685 7.86991C1.08753 8.07864 0.630261 8.56158 0.327302 9.30532C-0.242335 10.7037 0.0464884 12.8322 0.972326 14.0506C1.52217 14.7741 2.26614 15.1602 3.09351 15.1602C3.19905 15.1602 3.30577 15.1541 3.4139 15.1414L3.8019 15.0957V11.1184C3.80167 5.81493 7.55614 1.66021 12.3488 1.66021C17.142 1.66021 20.8967 5.81493 20.8967 11.1186V14.6356C20.7157 15.1713 19.1121 19.5096 14.4846 20.5621C14.2606 20.2106 13.8707 19.9751 13.4245 19.9751H11.2734C10.5798 19.9751 10.0158 20.5398 10.0158 21.2342C10.0158 21.9285 10.5798 22.4934 11.2734 22.4934H13.4245C14.0537 22.4934 14.5715 22.027 14.6629 21.4222C19.2966 20.3772 21.1813 16.3372 21.6383 15.1586C22.4527 15.1475 23.1844 14.764 23.7253 14.0506C24.6511 12.8327 24.9402 10.7042 24.3706 9.30532ZM2.92318 14.2742C2.43835 14.2285 2.01807 13.975 1.67106 13.5185C0.926387 12.5377 0.683031 10.7605 1.14006 9.63725C1.34266 9.14017 1.62183 8.82543 1.97025 8.70199C2.52882 8.50457 3.13403 8.82967 3.14722 8.83674C3.00186 9.56893 2.92318 10.3315 2.92318 11.1184V14.2742ZM11.2734 21.6145C11.064 21.6145 10.8943 21.4434 10.8943 21.2342C10.8943 21.025 11.0642 20.854 11.2734 20.854H13.4245C13.6339 20.854 13.8038 21.025 13.8038 21.2342C13.8038 21.4434 13.6334 21.6145 13.4245 21.6145H11.2734ZM23.0266 13.5187C22.68 13.975 22.2598 14.228 21.7749 14.2742V11.1184C21.7749 10.3315 21.696 9.56893 21.5509 8.83674C21.5634 8.82967 22.1686 8.50457 22.7281 8.70199C23.0763 8.82543 23.3552 9.14017 23.5576 9.63725C24.0148 10.7605 23.772 12.5377 23.0266 13.5187Z" fill="white"/>
</g>
</svg>
