<svg width="20" height="20" viewBox="0 0 20 20" fill="none" xmlns="http://www.w3.org/2000/svg">
<path d="M5 10.2207H15M5 6.2207H11" stroke="white" stroke-width="1.5" stroke-linecap="round" stroke-linejoin="round"/>
<path d="M1 18.5107V3.2207C1 2.69027 1.21071 2.18156 1.58579 1.80649C1.96086 1.43142 2.46957 1.2207 3 1.2207H17C17.5304 1.2207 18.0391 1.43142 18.4142 1.80649C18.7893 2.18156 19 2.69027 19 3.2207V13.2207C19 13.7511 18.7893 14.2598 18.4142 14.6349C18.0391 15.01 17.5304 15.2207 17 15.2207H5.961C5.66123 15.2207 5.36531 15.2882 5.09511 15.418C4.82491 15.5478 4.58735 15.7367 4.4 15.9707L2.069 18.8847C1.99143 18.9819 1.88556 19.0526 1.76604 19.0871C1.64652 19.1215 1.51926 19.1179 1.40186 19.0768C1.28446 19.0358 1.18273 18.9592 1.11073 18.8578C1.03874 18.7564 1.00005 18.6351 1 18.5107Z" stroke="white" stroke-width="1.5"/>
</svg>
