<svg width="24" height="25" viewBox="0 0 24 25" fill="none" xmlns="http://www.w3.org/2000/svg">
<path d="M10.2698 11.1681C10.66 11.5579 11.1981 11.7435 11.7436 11.6818C12.6305 11.5805 12.7748 10.4498 12.8313 10.024C12.8648 9.75785 12.9869 9.50662 13.1763 9.31918C13.6525 8.84272 14.4269 8.84272 14.9013 9.31918C15.1319 9.54967 15.2594 9.85551 15.2594 10.1816C15.2594 10.5079 15.1338 10.8155 14.9031 11.0442C14.7137 11.2337 14.4626 11.3574 14.1962 11.3912C13.7706 11.4456 12.64 11.59 12.5387 12.4767C12.4768 13.0244 12.6644 13.5607 13.0525 13.9508L14.6914 15.5894C14.9782 15.8763 14.9782 16.3452 14.6914 16.6321L13.0525 18.271C12.8706 18.4508 12.6232 18.539 12.3718 18.511C12.355 18.5033 12.2144 18.4023 12.1244 17.684C12.0625 17.2097 11.8431 16.7615 11.5036 16.4203C10.6542 15.5708 9.27033 15.5708 8.42097 16.4203C8.00848 16.8327 7.78178 17.3803 7.78178 17.9633C7.78178 18.5448 8.00848 19.094 8.42097 19.5067C8.7605 19.8443 9.20867 20.0635 9.68307 20.1236C10.4012 20.2155 10.5023 20.3562 10.5099 20.3672C10.5379 20.6224 10.4498 20.8718 10.2698 21.0537L8.63114 22.6926C8.34408 22.9793 7.87545 22.9793 7.58839 22.6926L5.94975 21.0537C5.56167 20.6636 5.02167 20.4762 4.47773 20.54C3.58901 20.641 3.44469 21.7717 3.39011 22.1975C3.35653 22.4637 3.23268 22.7131 3.04533 22.9026C2.81469 23.1331 2.50716 23.2607 2.18074 23.2607C1.85459 23.2607 1.5489 23.1331 1.31826 22.9026C0.842018 22.4261 0.842018 21.6517 1.31826 21.1773C1.50771 20.9881 1.75882 20.8642 2.02515 20.8306C2.44891 20.7762 3.5814 20.6318 3.68084 19.7448C3.7446 19.1972 3.55699 18.6609 3.16708 18.271L1.52817 16.6321C1.51138 16.6132 1.49091 16.5964 1.47019 16.5815C1.23193 16.2945 1.25083 15.8614 1.52817 15.5894L3.16708 13.9508C3.55516 13.5607 3.74277 13.0244 3.68084 12.4767C3.57956 11.59 2.44891 11.4456 2.02331 11.3912C1.75698 11.3574 1.50771 11.2337 1.31642 11.0442C1.08578 10.8155 0.960095 10.5079 0.960095 10.1816C0.960095 9.85551 1.08762 9.54967 1.31826 9.31918C1.7945 8.84272 2.56882 8.84482 3.04323 9.31735C3.23268 9.50846 3.35469 9.75785 3.38828 10.024C3.44469 10.4498 3.58901 11.5805 4.47589 11.6818C5.02534 11.7435 5.55957 11.5579 5.94975 11.1681L7.58839 9.5292C7.87545 9.24227 8.34408 9.24227 8.63114 9.5292L10.2698 11.1681ZM9.30995 7.80787L15.3702 1.7474C15.6475 1.46992 16.1332 1.46992 16.4127 1.7474L18.0513 3.3863C18.4396 3.77614 18.9778 3.9599 19.5252 3.90004C20.412 3.79871 20.5566 2.66805 20.6128 2.24251C20.6466 1.97606 20.7684 1.72667 20.956 1.53739C21.4322 1.06118 22.2084 1.06118 22.6828 1.53739C23.159 2.01176 23.159 2.78802 22.6846 3.26239C22.4933 3.45193 22.2441 3.57557 21.9777 3.60944C21.5521 3.66378 20.4215 3.80816 20.3202 4.69705C20.2583 5.24256 20.4459 5.78072 20.834 6.16898L22.4729 7.80787C22.7597 8.09454 22.7597 8.5634 22.4729 8.85033L20.834 10.4892C20.4441 10.8793 20.2564 11.4154 20.3202 11.963C20.4197 12.85 21.5503 12.9944 21.9759 13.0488C22.2422 13.0824 22.4933 13.2063 22.6828 13.3955C23.1572 13.8699 23.1572 14.6443 22.6828 15.1208C22.4521 15.3513 22.1465 15.4789 21.8203 15.4789C21.8203 15.4789 21.8203 15.4789 21.8185 15.4789C21.4942 15.4789 21.1866 15.3513 20.956 15.1226C20.7684 14.9331 20.6445 14.6819 20.6109 14.4157C20.5566 13.9902 20.412 12.8592 19.5233 12.7582C18.9739 12.6944 18.4396 12.8836 18.0513 13.2719L16.4127 14.9108C16.1256 15.1977 15.657 15.1977 15.3702 14.9108L13.7313 13.2719C13.5513 13.0918 13.4631 12.8406 13.4912 12.5912C13.4988 12.5744 13.6001 12.4355 14.3182 12.3436C14.7926 12.2817 15.2405 12.0625 15.5819 11.7249C15.9926 11.3125 16.2195 10.7649 16.2195 10.1816C16.2195 9.5985 15.9926 9.05089 15.5801 8.64032C14.7307 7.78897 13.3469 7.79081 12.4957 8.64032C12.158 8.97975 11.9386 9.42787 11.8788 9.90223C11.7867 10.6205 11.6463 10.7218 11.635 10.7292C11.3818 10.7573 11.1304 10.6711 10.9486 10.4892L9.30995 8.85033C9.02289 8.5634 9.02289 8.09454 9.30995 7.80787ZM6.90985 8.85033L5.27094 10.4892C5.0891 10.6693 4.83957 10.7573 4.5903 10.731C4.5735 10.7218 4.43286 10.6205 4.34102 9.90223C4.28094 9.42787 4.06157 8.97975 3.72388 8.63848C2.87267 7.79081 1.48882 7.79081 0.639451 8.63848C0.22697 9.05089 0 9.5985 0 10.1816C0 10.7649 0.22697 11.3125 0.639451 11.7249C0.978987 12.0625 1.42715 12.2817 1.90156 12.3436C2.61947 12.4355 2.72075 12.5744 2.72836 12.5857C2.75643 12.8406 2.66827 13.09 2.48827 13.2719L0.851464 14.9069C0.185774 15.5653 0.174491 16.6376 0.830735 17.3034C0.851464 17.326 0.875867 17.3446 0.900269 17.3614L2.48827 18.9496C2.67011 19.1315 2.75643 19.3809 2.7302 19.6303C2.72075 19.6453 2.61947 19.786 1.90156 19.8779C1.42715 19.9398 0.978987 20.1593 0.639451 20.4966C-0.209914 21.348 -0.209914 22.732 0.639451 23.5812C1.0501 23.9939 1.59955 24.2207 2.18074 24.2207C2.76404 24.2207 3.31139 23.9939 3.72388 23.5812C4.06157 23.2418 4.28094 22.7937 4.34286 22.3193C4.4347 21.601 4.57534 21.5 4.58452 21.4924C4.83773 21.4643 5.0891 21.5506 5.27094 21.7323L6.90985 23.3712C7.5716 24.0333 8.64793 24.0333 9.30995 23.3712L10.9486 21.7323C11.3367 21.3443 11.5243 20.8061 11.4624 20.2585C11.3611 19.3717 10.2304 19.2274 9.80482 19.1709C9.5385 19.1373 9.28739 19.0153 9.09978 18.826C8.8673 18.5952 8.74161 18.2897 8.74161 17.9633C8.74161 17.637 8.86913 17.3315 9.09978 17.101C9.57602 16.6245 10.3485 16.6245 10.825 17.0989C11.016 17.2921 11.1362 17.536 11.1719 17.8058C11.2262 18.2316 11.3687 19.3623 12.2574 19.4636C12.8069 19.5253 13.3414 19.3379 13.7313 18.9496L15.3702 17.311C15.6795 17.0015 15.8708 16.5851 15.8614 16.079C16.3056 16.0882 16.7519 15.927 17.0915 15.5894L18.7301 13.9508C18.9119 13.7688 19.1615 13.6825 19.4108 13.7087C19.4257 13.7182 19.5664 13.8195 19.6585 14.5375C19.7201 15.0119 19.9376 15.4602 20.2772 15.8015C20.6897 16.2121 21.2373 16.4389 21.8185 16.4389C21.8203 16.4389 21.8203 16.4389 21.8203 16.4389C22.4015 16.4389 22.9491 16.2121 23.3616 15.7994C24.211 14.9502 24.211 13.5662 23.3616 12.7148C23.0223 12.3775 22.5742 12.158 22.0979 12.0979C21.3816 12.0042 21.2803 11.8656 21.2727 11.8543C21.2446 11.5991 21.3309 11.3498 21.5128 11.1681L23.1517 9.5292C23.4723 9.2084 23.6484 8.78286 23.6484 8.32897C23.6484 7.87534 23.4723 7.44954 23.1517 7.129L21.5128 5.49011C21.3328 5.30819 21.2446 5.05879 21.2727 4.8094C21.2803 4.79444 21.3816 4.65373 22.0998 4.56185C22.5742 4.50016 23.0223 4.28069 23.3616 3.9431C24.2128 3.09175 24.2128 1.70803 23.3616 0.858521C22.5122 0.00901611 21.1284 0.00717849 20.2772 0.858521C19.9395 1.19796 19.7201 1.64607 19.6603 2.12044C19.5685 2.83869 19.4257 2.94002 19.4165 2.94737C19.1596 2.97756 18.9119 2.88935 18.7301 2.70743L17.0915 1.06854C16.4502 0.427206 15.3326 0.427206 14.6914 1.06854L8.63114 7.129C8.31968 7.44035 8.12866 7.85093 8.14362 8.37596C7.69151 8.36651 7.23967 8.52034 6.90985 8.85033Z" fill="white"/>
</svg>
