<svg width="24" height="25" viewBox="0 0 24 25" fill="none" xmlns="http://www.w3.org/2000/svg">
<path d="M17 21.2207L18.8 22.9907C19.3 23.4907 20 23.0907 20 22.5007V18.2207L22.8 14.8207C22.9114 14.6721 22.9793 14.4955 22.996 14.3105C23.0126 14.1255 22.9775 13.9396 22.8944 13.7735C22.8114 13.6074 22.6837 13.4677 22.5257 13.3701C22.3678 13.2724 22.1857 13.2207 22 13.2207H15C14.2 13.2207 13.7 14.2207 14.2 14.8207L17 18.2207V21.2207ZM15 20.2207H2V17.2207C2 14.5207 7.3 13.2207 10 13.2207C10.6 13.2207 11.3 13.3207 12.1 13.4207C11.9 14.0207 12 14.7207 12.2 15.3207C11.5 15.2207 10.7 15.1207 10 15.1207C7 15.1207 3.9 16.6207 3.9 17.2207V18.3207H14.5L15 18.9207V20.2207ZM10 4.2207C7.8 4.2207 6 6.0207 6 8.2207C6 10.4207 7.8 12.2207 10 12.2207C12.2 12.2207 14 10.4207 14 8.2207C14 6.0207 12.2 4.2207 10 4.2207ZM10 10.2207C8.9 10.2207 8 9.3207 8 8.2207C8 7.1207 8.9 6.2207 10 6.2207C11.1 6.2207 12 7.1207 12 8.2207C12 9.3207 11.1 10.2207 10 10.2207Z" fill="white"/>
</svg>
