<svg width="26" height="17" viewBox="0 0 26 17" fill="none" xmlns="http://www.w3.org/2000/svg">
<path d="M24.4846 15.7792C24.1928 16.0512 23.8027 16.2207 23.3712 16.2207H2.62875C2.19729 16.2207 1.80725 16.0512 1.51544 15.7792M24.4846 15.7792L24.4715 0.650822C24.1818 0.385911 23.7984 0.220703 23.3718 0.220703H2.62875C2.20394 0.220703 1.81975 0.38649 1.52911 0.650822C1.52467 0.654426 1.5199 0.6576 1.51513 0.660775C1.50711 0.666111 1.49908 0.67145 1.49259 0.67884M24.4846 15.7792C24.4875 15.7763 24.491 15.7742 24.4946 15.772C24.4989 15.7694 24.5034 15.7667 24.507 15.7626C24.508 15.7614 24.508 15.7602 24.5092 15.7593C24.8119 15.4673 25 15.0598 25 14.6092V1.83201M24.4846 15.7792L24.5351 0.573483M1.51544 15.7792C1.51262 15.7768 1.50941 15.7749 1.50617 15.773C1.50135 15.7702 1.49645 15.7673 1.49259 15.7626M1.51544 15.7792L1.45059 15.8553C1.45413 15.8583 1.45686 15.86 1.45713 15.8602L1.45714 15.8602C1.45724 15.8602 1.4571 15.8602 1.45622 15.8596L1.45321 15.8579M1.51544 15.7792L1.44725 15.8523C1.44923 15.8542 1.45122 15.856 1.45321 15.8579M1.49259 15.7626C1.49198 15.762 1.49169 15.7614 1.49141 15.7608C1.49115 15.7602 1.49091 15.7597 1.49044 15.7593M1.49259 15.7626L1.42225 15.8336C1.42047 15.8319 1.41882 15.8301 1.41727 15.8284L1.46493 15.7851L1.49044 15.7593M1.49259 15.7626L1.46713 15.7833L1.49044 15.7593M1.49044 15.7593C1.18868 15.4662 1 15.0594 1 14.6092V1.83201C1 1.38199 1.18926 0.975054 1.49044 0.682125M1.49044 0.682125C1.49088 0.681603 1.49112 0.68112 1.49136 0.680641C1.49166 0.680056 1.49195 0.679477 1.49259 0.67884M1.49044 0.682125L1.45594 0.646652M1.49044 0.682125L1.45594 0.646652M1.49259 0.67884L1.45594 0.646652M1.49259 0.67884L1.45594 0.646652M24.5351 0.573483C24.2286 0.29489 23.8231 0.120703 23.3718 0.120703H2.62875C2.1788 0.120703 1.7723 0.295812 1.46502 0.573951C1.46465 0.574208 1.46419 0.574531 1.4636 0.574931L1.45966 0.577566L1.45397 0.581383C1.44619 0.586685 1.43215 0.596525 1.41876 0.611378C1.41833 0.611863 1.41789 0.612354 1.41745 0.612851L1.41787 0.613216C1.41649 0.614562 1.41512 0.61591 1.41375 0.61726C1.41186 0.619642 1.41013 0.622042 1.40854 0.624441C1.40612 0.628092 1.4043 0.631359 1.4032 0.633419L24.5351 0.573483ZM24.5351 0.573483C24.5356 0.573875 24.5363 0.574293 24.5371 0.574853C24.5389 0.576036 24.5417 0.57785 24.5469 0.581383C24.5551 0.586993 24.5684 0.596416 24.5814 0.61031C24.5816 0.610477 24.5817 0.610647 24.5819 0.610815L24.5813 0.611311C24.5834 0.61329 24.5854 0.615275 24.5874 0.617264M24.5874 0.617264C24.5893 0.619653 24.5911 0.62206 24.5926 0.624464C24.5951 0.628111 24.5969 0.631376 24.598 0.633433M24.5874 0.617264C24.9027 0.927346 25.1006 1.35689 25.1 1.83214M24.5874 0.617264L25.1 1.83214M24.598 0.633433C24.5961 0.630019 24.5923 0.623714 24.5872 0.617701L24.5107 0.682125M24.598 0.633433C24.5984 0.634299 24.5988 0.634951 24.599 0.635328L24.599 0.635388C24.5997 0.63674 24.5993 0.635755 24.598 0.633433ZM24.5107 0.682125L24.5634 0.627935L24.5086 0.67884C24.5092 0.679477 24.5095 0.680056 24.5098 0.680641C24.51 0.68112 24.5103 0.681603 24.5107 0.682125ZM24.5107 0.682125C24.8119 0.975054 25.0006 1.38199 25 1.83201M25 1.83201H25.1V1.83214M25 1.83201L25.1 1.83214M25.1 1.83214V14.6092C25.1 15.0849 24.9027 15.5152 24.5855 15.8246M25.1 1.83214L24.5855 15.8246M24.5855 15.8246C24.5901 15.8187 24.5933 15.8134 24.5955 15.8094L24.5964 15.8075C24.5952 15.8098 24.5934 15.813 24.591 15.8166C24.5887 15.8199 24.5861 15.8233 24.5831 15.8266C24.5826 15.8272 24.5821 15.8277 24.5815 15.8282C24.5806 15.8293 24.5796 15.8303 24.5786 15.8313M24.5855 15.8246C24.5847 15.8253 24.584 15.826 24.5832 15.8268C24.5827 15.8273 24.5822 15.8278 24.5816 15.8283C24.5806 15.8293 24.5796 15.8303 24.5786 15.8313M24.5855 15.8246C24.5848 15.8254 24.5842 15.8262 24.5835 15.827L24.582 15.8287C24.5684 15.8442 24.5535 15.8532 24.5484 15.8563M24.5855 15.8246L24.5538 15.8513L24.5528 15.8523M24.5786 15.8313C24.5768 15.833 24.5748 15.8347 24.5728 15.8364L24.573 15.8367L24.5786 15.8313ZM24.5484 15.8563C24.5499 15.855 24.5513 15.8537 24.5528 15.8523M24.5484 15.8563C24.5484 15.8563 24.5484 15.8563 24.5484 15.8564L24.5479 15.8567C24.5457 15.858 24.5452 15.8583 24.5452 15.8583C24.5452 15.8583 24.5454 15.8582 24.5455 15.8581C24.5464 15.8575 24.5492 15.8556 24.5528 15.8523M24.5484 15.8563C24.2397 16.1422 23.8274 16.3207 23.3712 16.3207H2.62875C2.1734 16.3207 1.76173 16.1429 1.45321 15.8579M24.5528 15.8523L1.45321 15.8579M12.1681 9.33454L2.33209 0.908661C2.42633 0.877387 2.52582 0.859801 2.62992 0.859801H23.3718C23.4756 0.859801 23.5754 0.877388 23.6695 0.908599L13.8337 9.33454L13.8337 9.33457C13.3594 9.74126 12.6428 9.74129 12.1681 9.33455L12.1681 9.33454ZM11.6795 9.89452L11.6796 9.89454C12.0558 10.2167 12.5288 10.3788 12.9997 10.3788C13.4701 10.3788 13.943 10.2183 14.32 9.89443L15.7037 8.70898L23.6679 15.5326C23.574 15.564 23.4745 15.5816 23.3697 15.5816H2.62875C2.52484 15.5816 2.42512 15.564 2.33076 15.5325L10.2959 8.70898L11.6795 9.89452ZM24.2479 15.0508L16.2746 8.22061L24.248 1.39059C24.3165 1.52285 24.3551 1.67288 24.3551 1.83201V14.6092C24.3551 14.7685 24.3165 14.9184 24.2479 15.0508ZM1.64552 1.83201C1.64552 1.67298 1.68444 1.52292 1.75315 1.39056L9.726 8.2206L1.75324 15.0502C1.6847 14.918 1.64552 14.7681 1.64552 14.6092V1.83201Z" fill="white" stroke="white" stroke-width="0.2"/>
</svg>
