<svg width="24" height="25" viewBox="0 0 24 25" fill="none" xmlns="http://www.w3.org/2000/svg">
<path fill-rule="evenodd" clip-rule="evenodd" d="M4 1.36367C2.42214 1.36367 1.14297 2.64284 1.14297 4.2207C1.14297 5.79857 2.42214 7.07773 4 7.07773C5.57786 7.07773 6.85703 5.79857 6.85703 4.2207C6.85703 2.64284 5.57786 1.36367 4 1.36367ZM0 4.2207C0 2.01159 1.79089 0.220703 4 0.220703C6.20911 0.220703 8 2.01159 8 4.2207C8 6.42982 6.20911 8.2207 4 8.2207C1.79089 8.2207 0 6.42982 0 4.2207Z" fill="white"/>
<path fill-rule="evenodd" clip-rule="evenodd" d="M12 9.36367C10.4221 9.36367 9.14297 10.6428 9.14297 12.2207C9.14297 13.7986 10.4221 15.0777 12 15.0777C13.5779 15.0777 14.857 13.7986 14.857 12.2207C14.857 10.6428 13.5779 9.36367 12 9.36367ZM8 12.2207C8 10.0116 9.79089 8.2207 12 8.2207C14.2091 8.2207 16 10.0116 16 12.2207C16 14.4298 14.2091 16.2207 12 16.2207C9.79089 16.2207 8 14.4298 8 12.2207Z" fill="white"/>
<path fill-rule="evenodd" clip-rule="evenodd" d="M20 17.3637C18.4221 17.3637 17.143 18.6428 17.143 20.2207C17.143 21.7986 18.4221 23.0777 20 23.0777C21.5779 23.0777 22.857 21.7986 22.857 20.2207C22.857 18.6428 21.5779 17.3637 20 17.3637ZM16 20.2207C16 18.0116 17.7909 16.2207 20 16.2207C22.2091 16.2207 24 18.0116 24 20.2207C24 22.4298 22.2091 24.2207 20 24.2207C17.7909 24.2207 16 22.4298 16 20.2207Z" fill="white"/>
<path fill-rule="evenodd" clip-rule="evenodd" d="M21.143 4.79115H7.42865V3.64844H21.143C22.7208 3.64844 24 4.9276 24 6.50547V9.93411C24 11.512 22.7208 12.7911 21.143 12.7911H15.4286V11.6484H21.143C22.0896 11.6484 22.857 10.8807 22.857 9.93411V6.50547C22.857 5.55885 22.0896 4.79115 21.143 4.79115ZM2.85703 12.7911C1.91042 12.7911 1.14297 13.5589 1.14297 14.5055V17.9341C1.14297 18.8807 1.91042 19.6484 2.85703 19.6484H16.5714V20.7911H2.85703C1.27917 20.7911 0 19.512 0 17.9341V14.5055C0 12.9276 1.27917 11.6484 2.85703 11.6484H8.57135V12.7911H2.85703Z" fill="white"/>
</svg>
